<svg id="Layer_1" data-name="Layer 1" xmlns="http://www.w3.org/2000/svg" viewBox="0 0 679 303"><defs><style>.cls-1{fill:#001a6e;}</style></defs><path class="cls-1" d="M2.46,277.69c0-13.74,10.1-23.84,24.4-23.84,11.15,0,19.71,6.1,23,15.36H41.94c-2.67-5.4-8.07-8.77-15.08-8.77-10.16,0-17.17,7.3-17.17,17.25s7,17.25,17.17,17.25c8.35,0,14.52-4.21,16.69-11.85H24.06V276.5H51.19V280c-1,12.55-10.86,21.52-24.33,21.52C12.56,301.53,2.46,291.44,2.46,277.69Z"/><path class="cls-1" d="M56.73,273.63c0-12.13,7-19.78,19.84-19.78,13,0,20.06,7.65,20.06,19.78v27H89.48V286.11H63.67v14.51H56.73Zm32.75,5.89v-5.89c0-8.28-4.35-13.19-12.91-13.19s-12.9,4.91-12.9,13.19v5.89Z"/><path class="cls-1" d="M102.66,277.69c0-13.74,10.09-23.84,24.4-23.84,11.71,0,20.68,6.88,23.49,17H143c-2.45-6.24-8.27-10.38-15.91-10.38-10.17,0-17.18,7.3-17.18,17.25s7,17.25,17.18,17.25c7.64,0,13.46-4.14,15.91-10.38h7.58c-2.81,10.1-11.78,17-23.49,17C112.75,301.53,102.66,291.44,102.66,277.69Z"/><path class="cls-1" d="M176.28,254.77H196c11.29,0,16.2,6.24,16.2,14.72,0,6.87-3.23,12.27-10.45,14.09l12.13,17h-8.55l-10.94-16.41H183.43v16.41h-7.15Zm19.77,22.85c6.66,0,8.91-3.5,8.91-8.13s-2.32-8.13-8.91-8.13H183.43v16.26Z"/><path class="cls-1" d="M220.24,254.77H254v6.59H227.39V274H249.9v6.59H227.39V294H254v6.59H220.24Z"/><path class="cls-1" d="M259.51,287.51h7.08c.14,4.49,3.57,7.43,9.81,7.43s10-2.94,10-7.43c0-4.84-4.91-5.61-10.45-6.59-7.15-1.26-15.35-2.67-15.35-13,0-8.35,6.31-14.1,15.91-14.1,9.4,0,15.71,5.47,16,13.68h-6.8c-.21-4.07-3.37-7.09-9.05-7.09-5.89,0-9.18,3.09-9.18,7.3,0,4.83,5,5.61,10.52,6.59,7.22,1.26,15.42,2.66,15.42,13,0,8.76-6.73,14.23-17,14.23C266.38,301.53,259.72,296.2,259.51,287.51Z"/><path class="cls-1" d="M300.66,254.77h7.16v45.85h-7.16Z"/><path class="cls-1" d="M317.35,254.77h16.34c16,0,24.4,9.18,24.4,22.92s-8.42,22.93-24.4,22.93H317.35ZM333.69,294c11.71,0,17.18-6.45,17.18-16.34s-5.47-16.33-17.18-16.33H324.5V294Z"/><path class="cls-1" d="M365.17,254.77H398.9v6.59H372.32V274h22.51v6.59H372.32V294H398.9v6.59H365.17Z"/><path class="cls-1" d="M405.77,272.85c0-11.63,6.94-19,19.35-19s19.42,7.37,19.42,19v27.77h-7.15V272.85c0-7.71-4.21-12.41-12.27-12.41s-12.2,4.7-12.2,12.41v27.77h-7.15Z"/><path class="cls-1" d="M450.57,277.69c0-13.74,10.1-23.84,24.4-23.84,11.71,0,20.68,6.88,23.49,17h-7.57c-2.46-6.24-8.28-10.38-15.92-10.38-10.17,0-17.18,7.3-17.18,17.25s7,17.25,17.18,17.25c7.64,0,13.46-4.14,15.92-10.38h7.57c-2.81,10.1-11.78,17-23.49,17C460.67,301.53,450.57,291.44,450.57,277.69Z"/><path class="cls-1" d="M505.54,254.77h33.73v6.59H512.69V274H535.2v6.59H512.69V294h26.58v6.59H505.54Z"/><path class="cls-1" d="M565.84,254.77H573V294h25.73v6.59H565.84Z"/><path class="cls-1" d="M608.61,261.36H594.1v-6.59h36.25v6.59H615.76v39.26h-7.15Z"/><path class="cls-1" d="M636.94,254.77h16.33c16,0,24.4,9.18,24.4,22.92s-8.41,22.93-24.4,22.93H636.94ZM653.27,294c11.71,0,17.18-6.45,17.18-16.34s-5.47-16.33-17.18-16.33h-9.18V294Z"/><path class="cls-1" d="M209.62,120.38v41l-32.21,20.76a9.66,9.66,0,0,1-14.9-8.12V138.29a9.68,9.68,0,0,1,4.42-8.12l27.79-17.91A9.66,9.66,0,0,1,209.62,120.38Z"/><path class="cls-1" d="M395.78,54.52v41a9.66,9.66,0,0,1-14.9,8.12L340.07,77.24l-91.8,59.19V83a9.67,9.67,0,0,1,4.43-8.13l82.13-52.95a9.66,9.66,0,0,1,10.48,0Z"/><path class="cls-1" d="M517.63,138.3V174a9.67,9.67,0,0,1-14.9,8.12l-83.19-53.6a9.67,9.67,0,0,1-4.43-8.13V67l98.09,63.21A9.66,9.66,0,0,1,517.63,138.3Z"/><path class="cls-1" d="M248.27,136.42v53.44a9.66,9.66,0,0,1-4.43,8.12l-19.32,12.47a9.66,9.66,0,0,1-14.9-8.12v-41Z"/><path class="cls-1" d="M415.11,13.81V67.25L395.78,54.79v-41a9.66,9.66,0,0,1,14.9-8.12h0A9.67,9.67,0,0,1,415.11,13.81Z"/></svg>